<svg width="160" height="80" viewBox="0 0 160 80" fill="none" xmlns="http://www.w3.org/2000/svg">
<path d="M13.3333 28.208L24.5933 28.2427C25.9377 28.2475 27.238 28.7224 28.2691 29.5852C29.3001 30.448 29.9969 31.6442 30.2386 32.9666C30.792 36.0066 29.216 38.5988 26.772 39.2961C26.7012 39.33 26.6357 39.3741 26.5773 39.4268C28.8946 40.0935 30.2786 41.6266 30.668 43.9239C31.308 47.7145 29.22 50.8306 25.268 51.276C24.388 51.356 23.5026 51.3906 22.6187 51.3787L13.3253 51.3972L13.3333 28.208ZM18.3093 46.9547C18.3705 46.986 18.4362 47.0074 18.504 47.0186L23.168 47.0028C24.768 46.9254 25.7253 45.9414 25.7733 44.4866C25.8213 43.0321 24.9333 41.9707 23.3733 41.7827C22.3707 41.7027 21.364 41.676 20.36 41.7027H18.324L18.3093 46.9547ZM18.2773 37.388H22.48C22.7467 37.3959 23.0107 37.3801 23.2733 37.3373C24.2333 37.1427 24.9773 36.6439 25.2333 35.6306C25.3417 35.2724 25.3647 34.8935 25.3006 34.5247C25.2364 34.156 25.0869 33.8074 24.8639 33.5065C24.6409 33.2059 24.3507 32.9613 24.0164 32.7929C23.6821 32.6244 23.313 32.5364 22.9387 32.536C22.1613 32.496 21.3787 32.536 20.6027 32.536H18.3093C18.3093 32.7053 18.2773 32.808 18.2773 32.9093L18.2907 37.3893L18.2773 37.388ZM102.833 51.8067L101.076 51.4867C96.5373 50.3973 94.2265 46.4905 94.6226 42.1761C94.9426 38.5761 96.7773 35.9094 100.245 34.7094C105.091 33.0028 110.712 35.3066 111.539 41.7412C111.648 42.5919 111.641 43.4574 111.695 44.4079H99.1773C99.4654 46.0079 100.267 47.1121 101.664 47.704C103.933 48.664 106.059 48.1866 108.056 46.8961C108.189 46.8187 108.283 46.7292 108.399 46.6466C108.437 46.6426 108.475 46.6426 108.513 46.6466L110.469 49.5239L108.58 50.6907C107.385 51.2773 106.087 51.624 104.76 51.7201C104.607 51.7438 104.456 51.7804 104.309 51.8294L102.833 51.8067ZM107.373 41.3333C107.46 39.2533 105.477 37.6638 102.965 37.7626C100.879 37.8426 99.0213 39.6135 99.232 41.3333H107.373ZM120.8 51.8067L118.636 51.3626C115.283 50.4559 112.863 47.5361 112.601 44.0721C112.313 40.7759 113.268 37.9786 115.916 35.9025C119.916 32.748 127.809 33.4627 129.376 40.9241C129.486 41.4604 129.557 42.0039 129.587 42.5508C129.627 43.1292 129.587 43.7145 129.587 44.3825H117.187C117.272 45.2494 117.649 46.0599 118.257 46.6841C119.631 48.1027 121.348 48.372 123.191 48.0441C124.392 47.8548 125.518 47.3369 126.444 46.5481L128.444 49.4788C127.911 49.8255 127.449 50.1988 126.932 50.4787C125.646 51.1657 124.231 51.5792 122.777 51.6935C122.607 51.7205 122.438 51.757 122.272 51.8028L120.8 51.8067ZM117.208 41.3294H125.341C125.448 39.3119 123.509 37.7106 121.077 37.756C118.92 37.8015 117.051 39.5081 117.207 41.3294H117.208ZM38.5413 51.8067L36.9413 51.4867C33.6652 50.6973 31.748 48.2492 31.748 44.8866V34.64H36.1587V44.3947C36.1587 45.7761 36.5745 46.9521 37.8855 47.5493C39.3041 48.1893 40.7625 48.1893 42.0721 47.2293C43.0321 46.5455 43.3027 45.4959 43.3054 44.372C43.3054 41.3498 43.3054 38.321 43.3054 35.2852V34.6186H47.6748V44.7825C47.6748 48.6186 45.2774 51.276 41.4387 51.676C41.252 51.6948 41.0654 51.756 40.8761 51.8094L38.5413 51.8067ZM80.24 51.3267V28.224H96.3013V31.948C96.3332 32.4413 96.1478 32.5347 95.6945 32.5293C92.5241 32.5133 89.3534 32.5293 86.1827 32.5293H85.1826V37.388H92.9534C93.4387 37.388 93.5506 37.5213 93.5401 37.9921V41.7066H85.1599V51.328L80.24 51.3267ZM130.724 51.3172V35.2052C130.724 34.528 130.724 34.5215 131.427 34.528L138.693 34.6347C142.133 34.9014 144.82 36.4507 146.096 39.8413C147.389 43.2905 146.416 47.2253 143.772 49.3787C142.263 50.6103 140.385 51.3024 138.437 51.3438L130.948 51.3761C130.871 51.3626 130.795 51.3438 130.721 51.3188L130.724 51.3172ZM134.937 47.7705H137.369C140.223 47.7705 142.02 46.1705 142.34 43.3215C142.571 41.2852 141.468 39.2546 139.709 38.5267C138.165 37.8867 136.549 38.2294 134.936 38.1267L134.937 47.7705ZM56.5666 38.4H49.0667V34.6212H62.5999V36.7545C62.6219 37.0591 62.5827 37.3646 62.4843 37.6533C62.3862 37.942 62.2308 38.2084 62.028 38.4359L55.3347 46.8839L54.9159 47.4373H62.6667V51.3014H49.04V48.1373C49.04 47.9588 49.2267 47.7692 49.36 47.6066C51.6418 44.6956 53.9279 41.788 56.2186 38.8839C56.3279 38.7506 56.4053 38.6281 56.5653 38.3855L56.5666 38.4ZM63.8999 38.4174V35.0308C63.8999 34.8974 63.9187 34.7881 63.9345 34.6308H77.4278V37.6546C77.3837 37.8245 77.2929 37.9782 77.1655 38.0987C74.8366 41.0499 72.5083 43.9964 70.1814 46.9386L69.7854 47.488H77.0519C77.4575 47.488 77.6119 47.5868 77.5852 48.0214V51.3359H63.9279V48.0987C63.9279 47.9654 64.0721 47.8238 64.1679 47.6987L70.8639 39.1838L71.4506 38.4266L63.8999 38.4174Z" fill="black"/>
</svg>
