<svg width="160" height="80" viewBox="0 0 160 80" fill="none" xmlns="http://www.w3.org/2000/svg">
<path d="M72.7612 45.804C72.488 46.8057 72.2149 48.2626 70.9402 48.5357C70.3027 48.6269 69.6653 48.5357 69.21 47.9893C68.2996 46.6236 68.2086 44.8936 68.1176 43.1636C67.9353 39.5214 67.7533 35.6971 68.8459 32.4191C69.119 31.8728 69.6653 31.3265 70.3027 31.3265C71.0312 31.2355 71.7596 31.5998 72.0329 32.2371C72.7612 33.6028 72.7612 35.2418 72.9433 36.7898C73.3076 39.7947 73.2166 42.8904 72.7612 45.804ZM75.0376 30.0518C73.5806 28.2308 71.3043 27.5024 69.028 28.1398C66.8427 28.5949 65.2947 30.8714 64.7484 32.8745C63.6557 36.6987 63.747 41.2514 64.2933 45.2577C64.7484 47.7163 65.659 50.5389 68.2996 51.6316C70.3027 52.36 72.8523 52.0869 74.4002 50.63C76.8586 48.0806 77.1319 44.4383 77.3139 40.9783C77.4049 37.3361 77.2229 33.8761 75.5839 30.8714L75.0376 30.0518ZM27.9627 47.261C27.6896 47.8983 27.1433 48.6269 26.4147 48.7179C25.8684 48.8089 25.3221 48.6269 24.958 48.2626C24.1384 47.5342 24.1384 46.5326 23.8653 45.531C23.4235 41.7153 23.4847 37.8579 24.0474 34.0581C24.3206 33.0567 24.5937 31.6908 25.8684 31.4177C26.688 31.2355 27.4163 31.7818 27.8716 32.5104C28.7823 34.6955 28.7823 37.3361 28.7823 39.8857C28.691 42.4351 28.691 44.9847 27.9627 47.261ZM26.0506 27.9575C23.8653 28.0485 21.8621 29.5055 20.9516 31.4177C19.8589 33.9671 19.4947 36.7898 19.4947 39.7034C19.5858 43.4367 19.5858 47.17 21.771 49.9926C22.9547 51.6316 24.7757 52.1779 26.779 51.9047C28.691 51.8136 30.5123 50.3569 31.3316 48.6269C32.6065 45.8953 32.8796 42.7083 32.8796 39.4304C32.7886 36.2434 32.6065 33.0567 31.1496 30.5071C29.9659 28.8681 28.1449 27.8665 26.0506 27.9575ZM43.3508 40.523C41.5298 38.611 38.5249 37.6093 37.8876 34.9687C37.7965 33.694 37.6145 32.0551 38.9802 31.3265C39.3445 31.1445 39.7996 31.2355 40.1639 31.3265C40.8012 31.6908 41.0745 32.3281 41.1655 33.0567C41.3476 33.8761 41.2565 34.9687 41.3476 35.8794H45.0808C45.1719 33.9671 45.0808 32.1461 44.2614 30.5071C43.7653 29.5685 42.9617 28.8289 41.9849 28.4128C40.2549 27.5934 37.7055 27.7755 36.1576 29.0502C34.0633 30.7802 33.517 33.6028 34.0633 36.1524C34.7917 39.0661 37.9786 40.7051 40.0729 42.7083C41.2565 43.71 41.6208 45.0757 41.4386 46.5326C41.3476 47.443 40.8923 48.4447 39.8908 48.7179C39.3445 48.8089 38.7982 48.7179 38.4339 48.3536C37.2502 47.0789 37.5233 45.0757 37.5233 43.3457H33.608C33.4259 45.713 33.608 48.1716 35.0649 49.9926C36.5219 51.6316 38.7072 52.0869 40.8923 51.7226C42.8955 51.3583 44.7165 49.6283 45.1719 47.7163C45.8092 45.2577 45.3541 42.344 43.3508 40.523ZM100.077 46.3504C99.8043 47.17 99.531 48.2626 98.5294 48.6269C97.71 48.9 96.9815 48.5357 96.5264 47.9893C95.889 47.17 95.8888 46.1683 95.7068 45.2577C95.1604 41.7067 95.3427 37.8824 95.7068 34.3314C95.8888 33.3298 96.2531 32.2371 97.1637 31.6908C97.801 31.4177 98.6204 31.5087 99.1668 32.0551C100.168 33.3298 100.168 34.9687 100.442 36.6077C100.624 39.7034 100.624 43.1636 100.077 46.3504ZM97.0727 28.0485C95.0694 28.1398 93.2484 29.7787 92.5198 31.5087C91.1541 34.7867 91.0631 38.611 91.2451 42.4351C91.5184 45.9863 91.9735 50.1747 95.7978 51.7226C97.801 52.36 100.259 52.0869 101.807 50.5389C103.993 48.1716 104.357 44.9847 104.63 41.7977C104.721 38.1557 104.539 34.5134 103.173 31.4177C102.172 29.1412 99.7131 27.5934 97.0727 28.0485Z" fill="black" fill-opacity="0.99"/>
<path d="M18.5842 42.162H14.6688C14.5778 44.1651 14.6688 46.3504 13.7583 47.9893C13.4851 48.5357 12.8477 48.7179 12.2104 48.6267C11.4819 48.4446 11.1177 47.6253 10.8446 46.9879C9.93403 43.3457 9.93403 38.884 10.2983 34.9687C10.4804 33.7851 10.5714 32.5102 11.4819 31.5997C11.8462 31.3265 12.3925 31.2355 12.8477 31.4175C13.6672 31.7818 13.9404 32.6924 14.1225 33.5118C14.3046 34.6955 14.3046 35.9704 14.4867 37.154H18.402C18.402 34.7867 18.1289 32.4191 16.9452 30.5071C15.7615 28.4128 13.303 27.5934 11.0267 28.1397C8.29505 28.6861 7.02031 31.5997 6.56503 33.9671C6.56503 34.2404 6.38293 34.5134 6.47399 34.7867C6.47399 34.7867 6.38293 34.7867 6.38293 34.8777C6.0187 36.9718 6.0187 39.1571 6.10976 41.2514C6.38293 44.5293 6.47399 47.8073 8.38611 50.3569C9.84297 52.1779 12.2104 52.5422 14.3957 51.9046C17.8557 50.63 18.4931 46.9879 18.6752 43.71C18.5842 43.1636 18.7663 42.6173 18.5842 42.162ZM54.6414 41.8887L54.5504 42.071L51.7278 28.5948H46.2645V51.5406H49.8157V35.6971L51.8188 45.531L53.0025 51.5406H55.8251L59.012 36.4257V51.5406H62.7453V28.5038H57.4641L54.6414 41.8887ZM85.9641 39.3393C85.1445 40.341 83.7788 40.341 82.5039 40.341V31.9638C82.5951 31.8728 82.5039 31.7818 82.5951 31.7818C84.0518 31.6908 85.5998 31.8728 86.2371 33.3297C87.1478 34.9687 87.2388 37.7004 85.9641 39.3393ZM85.3265 28.5038H78.4065V51.4495H82.4129V43.4367H84.6892C86.3282 43.3457 87.7851 42.8904 88.9688 41.6157C91.2451 39.2483 91.4271 35.333 90.3347 32.3281C89.5151 30.4161 87.5118 28.5948 85.3265 28.5038Z" fill="black" fill-opacity="0.99"/>
<path d="M114.191 51.5406V48.4447H110.093V28.5039H106.178V51.5406H114.191ZM115.101 28.5039H119.017V51.5406H115.101V28.5039ZM119.745 28.5039V31.7819H123.205V51.5406H127.029V31.7819H130.398V28.5039H119.745Z" fill="black" fill-opacity="0.99"/>
<path d="M134.04 41.8888L135.224 33.6028V33.5118L136.499 41.98H134.04V41.8888ZM132.492 28.5039L128.668 51.5406H132.492L133.585 45.0757H137.045L138.138 51.4496H141.78L137.865 28.4128H132.492V28.5039ZM150.703 28.5039V42.5263L146.97 28.5039H142.599V51.5406H145.877V36.972C146.06 37.4271 149.702 51.5406 149.702 51.5406H153.89V28.5039H150.703Z" fill="black" fill-opacity="0.99"/>
</svg>
