<svg width="68" height="92" viewBox="0 0 68 92" fill="none" xmlns="http://www.w3.org/2000/svg">
<g opacity="0.12">
<path d="M63.0856 85.9084C63.0856 88.727 50.044 91.012 33.9566 91.012C17.8691 91.012 4.8277 88.727 4.8277 85.9084C4.8277 83.0897 17.8691 80.8047 33.9566 80.8047C50.044 80.8047 63.0856 83.0897 63.0856 85.9084Z" fill="black"/>
</g>
<path d="M34.0378 0.046875C15.6238 0.046875 0.642609 15.0226 0.642609 33.4305C0.642609 44.8175 6.04621 57.0425 16.7036 69.7663C24.531 79.1118 32.2522 85.1224 32.577 85.3737C33.0074 85.7065 33.5226 85.8728 34.0382 85.8728C34.5534 85.8728 35.069 85.7065 35.4994 85.3737C35.824 85.1224 43.5452 79.1118 51.3728 69.7663C62.0304 57.0425 67.434 44.8179 67.434 33.4305C67.4334 15.0226 52.452 0.046875 34.0378 0.046875ZM46.4054 33.4301C46.4054 40.2579 40.8682 45.7938 34.0378 45.7938C27.2076 45.7938 21.6704 40.2583 21.6704 33.4301C21.6704 26.6019 27.2076 21.067 34.0378 21.067C40.868 21.067 46.4054 26.6023 46.4054 33.4301Z" fill="#CC2A41"/>
<g opacity="0.1">
<path opacity="0.1" d="M34.0378 0.046875C32.5784 0.046875 31.141 0.141521 29.7304 0.324008C46.1176 2.44301 58.8184 16.4817 58.8184 33.4307C58.8184 44.8175 53.415 57.0429 42.7576 69.7667C37.7238 75.7764 32.7374 80.4038 29.7304 83.0106C31.3996 84.4575 32.4614 85.2845 32.577 85.3741C33.0074 85.7069 33.5226 85.8731 34.0382 85.8731C34.5534 85.8731 35.069 85.7069 35.4994 85.3741C35.824 85.1228 43.5452 79.1121 51.3728 69.7667C62.0304 57.0429 67.4337 44.8179 67.4337 33.4307C67.4333 15.0228 52.452 0.046875 34.0378 0.046875Z" fill="black"/>
</g>
</svg>
