<svg width="160" height="80" viewBox="0 0 160 80" fill="none" xmlns="http://www.w3.org/2000/svg">
<path d="M127.353 25.3468C122.987 25.3468 117.793 28.3148 116.793 37.6188V16.6401H105.692V21.8054C107.576 21.8054 108.719 22.7467 108.719 24.6321V37.5893C107.519 27.8561 102.783 25.2894 100.5 25.3174C98.1027 25.3174 95.7628 26.7734 95.0492 29.4561V25.9174H85.4894V31.4241C83.9773 26.9707 79.3254 25.3174 76.5855 25.3174C75.0734 25.3174 68.5652 26.0027 66.6826 34.7921C64.9134 23.2321 54.3825 24.0894 49.9586 27.9427C49.7321 25.0321 49.132 21.0934 46.248 18.8094C44.6786 17.5827 42.3387 16.5828 39.056 16.5828H21.6133V22.8041C24.64 22.8307 24.752 25.7147 24.752 26.1721V44.8653C24.752 46.9775 23.952 48.3455 21.584 48.3761V54.5696H37.7373V48.2627C35.3974 48.2361 34.6265 46.9788 34.6265 44.8669V39.616H37.3668C40.6492 39.5014 43.3879 39.9014 46.3559 36.7053C46.2707 37.5909 46.0426 39.3879 46.0426 40.3014C45.928 44.896 46.4693 49.1479 49.2386 51.9455C49.296 52.0028 52.0653 55.1722 56.6587 55.2283C59.2267 55.2549 65.0492 54.7722 66.5919 46.0096C66.9346 47.1801 68.8187 55.2283 77.1228 55.2283C85.4854 55.2283 87.2255 47.608 87.6534 45.2681V54.6281C87.6267 57.1109 85.7999 58.252 84.6572 58.2814V63.4186H98.2572V58.2535C96.7455 58.0534 95.3174 56.6535 95.3174 54.4295L95.2028 50.8335C96.4028 54.1162 99.5973 55.2001 100.909 55.2001C102.479 55.2001 106.047 54.344 107.073 48.0935V54.4868H118.689V48.18C120.173 57.8842 137.068 57.7696 138.096 45.5535H130.076C129.763 47.2948 128.992 48.6934 127.536 48.6934C125.739 48.6934 124.968 46.6094 124.853 44.3268C124.796 43.5001 124.768 42.6146 124.796 42.0733H138.324C138.467 39.3055 138.609 35.0241 136.555 30.972C134.928 27.8334 131.788 25.3494 127.336 25.3494L127.353 25.3468ZM36.884 32.5107H34.6014V23.7508H36.8546C38.6241 23.7508 39.6227 25.2347 39.6227 28.0881C39.6494 31.2267 38.9373 32.4546 36.8828 32.5119L36.884 32.5107ZM54.1214 36.1907C54.236 33.8787 55.0348 31.6813 56.8613 31.6813C58.6587 31.6813 59.3732 33.8787 59.4881 36.1907C59.5148 36.9613 59.5455 37.0174 59.4881 37.5909H54.1226C54.0653 37.0201 54.0653 36.9907 54.1226 36.1907H54.1214ZM59.4281 45.5507C59.1427 47.292 58.3439 48.6906 56.888 48.6615C55.0906 48.6615 54.32 46.5775 54.2054 44.2946C54.1481 43.4679 54.1199 42.5827 54.1481 42.0414H66.0199C66.0466 43.4106 66.1055 43.7827 66.4466 45.5213H59.4265L59.4281 45.5507ZM77.0946 48.7467C74.9827 48.7201 74.1548 44.98 74.1548 40.2986C74.1548 35.6454 75.04 31.8229 77.0946 31.8508C79.2068 31.8774 80.0347 35.6175 80.0347 40.2986C80.0347 44.98 79.2347 48.7746 77.0946 48.7467ZM97.7573 48.6894C96.1039 48.6894 95.5308 46.9202 95.5308 44.5509V35.9029C95.4452 32.9628 96.3013 31.5654 97.9574 31.6227C99.6693 31.7079 100.668 33.9053 100.668 40.3268C100.695 46.1775 99.5841 48.6894 97.7573 48.6894ZM130.149 37.5881H124.784C124.727 37.0174 124.757 36.9613 124.784 36.1879C124.899 33.8759 125.669 31.8508 127.467 31.8508C129.264 31.8508 130.035 33.8774 130.149 36.1879C130.207 36.9879 130.207 37.0146 130.149 37.5881Z" fill="black"/>
</svg>
